<?xml version="1.0" encoding="UTF-8" standalone="no"?>
<!DOCTYPE svg PUBLIC "-//W3C//DTD SVG 1.1//EN" "http://www.w3.org/Graphics/SVG/1.1/DTD/svg11.dtd">
<svg xmlns="http://www.w3.org/2000/svg" version="1.1" viewBox="0 0 1024 1024" width="1024.0pt" height="1024.0pt" xmlns:xlink="http://www.w3.org/1999/xlink">
<defs>
<path d="M 0.00 0.00 L 1024.00 0.00 L 1024.00 1024.00 L 0.00 1024.00 L 0.00 0.00 Z M 139.42 450.19 C 132.86 444.84 125.60 438.97 121.15 431.68 C 123.50 441.97 127.30 452.23 132.56 461.40 C 126.88 457.34 121.84 452.27 117.08 447.19 C 122.79 458.01 128.72 468.95 136.53 478.47 C 139.53 482.22 143.31 485.08 146.53 488.61 C 139.52 488.27 132.32 484.76 125.47 482.98 C 132.51 490.19 139.78 495.75 148.69 500.49 C 141.42 500.88 133.91 499.40 126.69 498.52 C 134.11 506.77 144.23 510.72 155.08 511.95 C 151.42 514.95 147.30 517.11 143.05 519.13 C 149.32 520.42 155.65 521.36 161.94 522.50 C 159.65 525.42 157.05 528.01 154.31 530.51 C 163.22 531.18 171.93 531.01 180.32 527.56 C 174.67 531.26 168.28 535.40 164.31 540.94 C 169.11 540.82 173.29 539.09 177.75 537.59 C 175.60 541.42 173.64 545.29 172.49 549.55 C 178.60 547.52 184.39 543.61 189.97 540.38 C 188.77 543.27 187.48 546.11 186.34 549.03 C 187.22 549.52 188.10 550.02 188.99 550.51 C 195.41 548.22 198.96 543.47 203.90 539.16 C 201.24 543.78 198.23 548.17 195.35 552.65 C 200.90 552.14 204.03 549.61 206.96 545.04 C 205.66 547.87 204.47 550.75 203.19 553.59 C 198.70 553.63 194.47 557.22 190.43 559.02 C 203.66 578.15 217.07 597.16 230.22 616.34 C 243.65 597.32 256.93 578.16 270.14 558.98 C 266.69 557.22 263.26 555.42 259.90 553.49 C 259.15 553.66 258.40 553.82 257.65 553.98 C 256.34 551.07 255.07 548.15 253.59 545.32 C 256.73 549.42 259.86 552.27 265.26 552.66 C 262.39 548.12 259.27 543.78 256.79 538.99 C 260.40 542.27 263.87 546.47 268.05 548.93 C 270.04 549.87 271.85 550.99 273.86 549.40 C 273.72 546.24 271.76 543.13 270.60 540.21 C 276.12 543.71 281.83 547.24 287.92 549.64 C 287.21 545.12 284.95 541.63 282.98 537.59 C 287.40 539.12 291.53 540.88 296.31 540.90 C 292.46 535.36 285.88 531.37 280.38 527.51 C 288.75 531.07 297.45 531.20 306.37 530.46 C 303.58 527.88 300.78 525.54 298.94 522.12 C 305.24 521.62 311.37 520.29 317.57 519.15 C 313.33 517.12 309.21 514.99 305.59 511.95 C 316.41 510.65 326.52 506.89 333.81 498.49 C 326.62 499.46 319.19 500.90 311.93 500.44 C 320.67 495.85 328.60 490.01 335.25 482.69 C 328.39 484.97 321.15 488.26 313.87 488.52 C 316.57 485.98 319.46 483.74 321.95 480.97 C 331.01 470.73 336.98 459.37 343.46 447.51 C 338.61 452.47 333.68 457.30 328.13 461.49 C 333.42 452.09 336.86 441.98 339.72 431.61 C 334.77 439.31 327.87 444.49 321.17 450.47 C 325.50 445.02 327.04 438.76 326.09 431.88 C 324.79 423.15 321.53 413.92 315.61 407.24 C 315.68 413.10 316.04 418.69 314.77 424.49 C 311.41 441.99 299.44 457.82 285.49 468.49 C 285.81 466.37 286.12 464.25 286.42 462.13 C 280.27 467.98 273.63 473.23 267.10 478.63 L 267.58 475.33 C 264.46 477.86 261.38 480.32 257.85 482.25 L 257.26 480.27 C 254.21 484.20 250.51 487.23 246.59 490.25 C 235.74 490.21 224.89 490.18 214.03 490.26 C 210.36 487.34 206.75 484.54 203.92 480.73 C 202.98 481.49 202.07 481.74 201.16 481.49 C 198.35 479.66 195.78 477.44 193.15 475.35 L 193.58 478.61 C 187.04 473.31 180.42 468.03 174.30 462.24 C 174.49 464.32 174.67 466.39 174.84 468.46 C 162.44 458.20 152.25 446.11 147.38 430.51 C 144.84 422.87 144.70 415.18 144.74 407.22 C 138.40 415.55 134.12 426.47 134.39 437.00 C 134.36 442.01 136.31 446.35 139.42 450.19 Z M 488.18 532.88 C 493.19 532.92 498.21 532.91 503.23 532.90 C 506.34 523.98 509.42 515.05 512.56 506.14 C 526.57 506.14 540.59 506.11 554.60 506.15 C 557.67 515.06 560.82 523.95 563.88 532.86 C 568.90 532.90 573.92 532.90 578.94 532.86 C 568.13 502.73 557.25 472.62 546.42 442.49 C 544.48 437.26 542.75 431.94 540.62 426.78 C 535.93 426.92 531.21 426.62 526.53 426.92 C 526.06 427.63 525.66 428.39 525.34 429.21 C 512.97 463.77 500.56 498.33 488.18 532.88 Z M 631.91 532.88 C 636.93 532.91 641.96 532.94 646.98 532.85 C 659.28 497.47 672.17 462.26 684.33 426.84 C 679.39 426.80 674.45 426.83 669.50 426.80 C 660.57 452.87 651.91 479.05 643.04 505.14 C 641.96 508.66 640.74 512.08 639.33 515.48 C 629.21 485.98 619.45 456.33 609.37 426.81 C 604.41 426.88 599.44 426.67 594.49 426.90 C 606.71 462.12 619.54 497.65 631.91 532.88 Z M 374.43 532.87 C 379.23 532.89 384.04 532.88 388.85 532.89 C 389.04 518.52 388.47 504.08 389.16 489.72 C 401.13 489.80 413.10 489.73 425.07 489.76 C 429.28 494.24 433.50 498.71 437.69 503.20 C 437.76 513.10 437.71 523.00 437.73 532.89 C 442.60 532.89 447.47 532.90 452.34 532.88 C 452.35 521.81 452.33 510.74 452.36 499.66 C 448.27 495.17 444.06 490.81 440.09 486.21 C 443.96 482.39 447.76 478.52 451.65 474.72 C 451.71 463.65 451.68 452.58 451.66 441.51 C 446.74 436.64 441.85 431.72 436.95 426.82 C 416.11 426.81 395.28 426.83 374.44 426.82 C 374.39 462.17 374.41 497.52 374.43 532.87 Z M 721.51 426.82 C 721.47 462.18 721.51 497.54 721.49 532.90 C 745.24 532.91 768.99 532.89 792.74 532.90 C 792.74 528.69 792.75 524.48 792.74 520.27 C 773.89 520.27 755.04 520.27 736.18 520.27 C 736.17 508.89 736.18 497.51 736.18 486.13 C 753.57 486.13 770.97 486.13 788.37 486.13 C 788.42 481.90 788.40 477.66 788.40 473.43 C 771.00 473.41 753.59 473.43 736.18 473.42 C 736.17 462.15 736.17 450.88 736.18 439.61 C 755.04 439.61 773.89 439.61 792.74 439.61 C 792.75 435.34 792.75 431.08 792.72 426.82 C 768.98 426.82 745.25 426.81 721.51 426.82 Z M 833.63 426.82 C 833.59 462.18 833.62 497.53 833.61 532.89 C 838.27 532.91 842.93 532.90 847.60 532.90 C 847.65 505.45 847.51 477.99 847.67 450.54 C 865.26 477.95 882.82 505.39 900.35 532.84 C 904.96 532.91 909.58 532.90 914.19 532.85 C 914.19 497.51 914.19 462.17 914.19 426.82 C 909.54 426.81 904.89 426.82 900.25 426.82 C 900.16 454.32 900.30 481.83 900.18 509.33 C 882.42 481.89 864.96 454.26 847.23 426.81 C 842.70 426.82 838.16 426.82 833.63 426.82 Z M 376.96 555.38 C 379.75 569.90 382.95 584.36 385.85 598.86 C 388.54 598.89 391.23 598.89 393.93 598.84 C 396.84 588.54 399.76 578.21 402.90 567.98 C 405.74 578.30 408.69 588.59 411.61 598.89 C 414.25 598.89 416.89 598.90 419.54 598.89 C 422.65 584.40 425.57 569.86 428.61 555.35 C 425.74 555.36 422.87 555.37 420.00 555.41 C 418.43 565.80 416.31 576.11 414.86 586.51 C 411.48 576.28 408.99 565.75 406.06 555.38 C 403.92 555.37 401.78 555.36 399.65 555.36 C 396.71 565.74 393.81 576.12 390.87 586.50 C 388.85 576.16 387.24 565.74 385.41 555.36 C 382.60 555.36 379.78 555.36 376.96 555.38 Z M 490.50 555.41 C 490.38 569.91 490.48 584.42 490.45 598.91 C 501.02 598.89 511.60 598.96 522.17 598.86 C 522.06 596.51 521.97 594.15 521.88 591.80 C 514.20 591.80 506.52 591.87 498.84 591.76 C 498.85 588.06 498.85 584.35 498.85 580.65 C 505.98 580.59 513.12 580.65 520.26 580.61 C 520.25 578.26 520.25 575.92 520.25 573.57 C 513.12 573.54 505.98 573.64 498.84 573.52 C 498.85 569.86 498.85 566.20 498.84 562.55 C 506.53 562.43 514.21 562.47 521.90 562.47 C 521.90 560.10 521.90 557.73 521.90 555.36 C 511.44 555.40 500.96 555.28 490.50 555.41 Z M 596.91 555.44 C 591.53 569.89 586.27 584.39 581.00 598.88 C 583.86 598.90 586.71 598.91 589.57 598.89 C 590.75 595.74 591.91 592.58 593.03 589.40 C 598.16 589.33 603.30 589.37 608.43 589.36 C 609.63 592.52 610.81 595.69 611.93 598.88 C 614.82 598.90 617.71 598.90 620.61 598.89 C 615.26 584.39 609.97 569.87 604.67 555.36 C 602.08 555.36 599.49 555.31 596.91 555.44 Z M 681.47 555.41 C 681.36 569.90 681.46 584.41 681.43 598.91 C 684.23 598.92 687.03 598.92 689.83 598.93 C 689.84 594.02 689.84 589.11 689.83 584.21 C 695.63 584.02 701.42 584.25 707.22 584.10 C 708.10 584.13 708.83 583.92 709.42 583.46 C 711.59 581.61 713.49 579.43 715.50 577.41 C 715.50 572.28 715.52 567.16 715.48 562.03 C 713.26 559.86 711.20 557.34 708.69 555.50 C 699.66 555.17 690.52 555.40 681.47 555.41 Z M 777.21 562.33 C 777.12 572.23 777.18 582.13 777.18 592.03 C 779.46 594.32 781.74 596.60 784.02 598.88 C 791.65 598.93 799.28 598.92 806.91 598.88 C 809.20 596.58 811.50 594.29 813.80 592.00 C 813.82 582.10 813.87 572.20 813.77 562.30 C 811.42 560.02 809.10 557.71 806.80 555.38 C 799.33 555.48 791.75 555.09 784.31 555.54 C 781.72 557.50 779.57 560.10 777.21 562.33 Z M 877.52 555.36 C 877.52 569.87 877.51 584.39 877.52 598.90 C 880.22 598.90 882.93 598.92 885.63 598.92 C 885.73 589.06 885.56 579.19 885.73 569.32 C 892.22 579.16 898.73 588.98 905.15 598.86 C 907.72 598.91 910.29 598.91 912.87 598.94 C 912.88 584.41 912.87 569.88 912.87 555.35 C 910.17 555.36 907.47 555.36 904.78 555.37 C 904.72 565.26 904.85 575.16 904.71 585.05 C 898.16 575.18 891.69 565.26 885.19 555.36 C 882.63 555.36 880.07 555.36 877.52 555.36 Z" id="p0" />
<path d="M 144.74 407.22 C 144.70 415.18 144.84 422.87 147.38 430.51 C 152.25 446.11 162.44 458.20 174.84 468.46 C 174.67 466.39 174.49 464.32 174.30 462.24 C 180.42 468.03 187.04 473.31 193.58 478.61 L 193.15 475.35 C 195.78 477.44 198.35 479.66 201.16 481.49 C 202.07 481.74 202.98 481.49 203.92 480.73 C 206.75 484.54 210.36 487.34 214.03 490.26 C 224.89 490.18 235.74 490.21 246.59 490.25 C 250.51 487.23 254.21 484.20 257.26 480.27 L 257.85 482.25 C 261.38 480.32 264.46 477.86 267.58 475.33 L 267.10 478.63 C 273.63 473.23 280.27 467.98 286.42 462.13 C 286.12 464.25 285.81 466.37 285.49 468.49 C 299.44 457.82 311.41 441.99 314.77 424.49 C 316.04 418.69 315.68 413.10 315.61 407.24 C 321.53 413.92 324.79 423.15 326.09 431.88 C 327.04 438.76 325.50 445.02 321.17 450.47 C 327.87 444.49 334.77 439.31 339.72 431.61 C 336.86 441.98 333.42 452.09 328.13 461.49 C 333.68 457.30 338.61 452.47 343.46 447.51 C 336.98 459.37 331.01 470.73 321.95 480.97 C 319.46 483.74 316.57 485.98 313.87 488.52 C 321.15 488.26 328.39 484.97 335.25 482.69 C 328.60 490.01 320.67 495.85 311.93 500.44 C 319.19 500.90 326.62 499.46 333.81 498.49 C 326.52 506.89 316.41 510.65 305.59 511.95 C 309.21 514.99 313.33 517.12 317.57 519.15 C 311.37 520.29 305.24 521.62 298.94 522.12 C 300.78 525.54 303.58 527.88 306.37 530.46 C 297.45 531.20 288.75 531.07 280.38 527.51 C 285.88 531.37 292.46 535.36 296.31 540.90 C 291.53 540.88 287.40 539.12 282.98 537.59 C 284.95 541.63 287.21 545.12 287.92 549.64 C 281.83 547.24 276.12 543.71 270.60 540.21 C 271.76 543.13 273.72 546.24 273.86 549.40 C 271.85 550.99 270.04 549.87 268.05 548.93 C 263.87 546.47 260.40 542.27 256.79 538.99 C 259.27 543.78 262.39 548.12 265.26 552.66 C 259.86 552.27 256.73 549.42 253.59 545.32 C 255.07 548.15 256.34 551.07 257.65 553.98 C 258.40 553.82 259.15 553.66 259.90 553.49 C 263.26 555.42 266.69 557.22 270.14 558.98 C 256.93 578.16 243.65 597.32 230.22 616.34 C 217.07 597.16 203.66 578.15 190.43 559.02 C 194.47 557.22 198.70 553.63 203.19 553.59 C 204.47 550.75 205.66 547.87 206.96 545.04 C 204.03 549.61 200.90 552.14 195.35 552.65 C 198.23 548.17 201.24 543.78 203.90 539.16 C 198.96 543.47 195.41 548.22 188.99 550.51 C 188.10 550.02 187.22 549.52 186.34 549.03 C 187.48 546.11 188.77 543.27 189.97 540.38 C 184.39 543.61 178.60 547.52 172.49 549.55 C 173.64 545.29 175.60 541.42 177.75 537.59 C 173.29 539.09 169.11 540.82 164.31 540.94 C 168.28 535.40 174.67 531.26 180.32 527.56 C 171.93 531.01 163.22 531.18 154.31 530.51 C 157.05 528.01 159.65 525.42 161.94 522.50 C 155.65 521.36 149.32 520.42 143.05 519.13 C 147.30 517.11 151.42 514.95 155.08 511.95 C 144.23 510.72 134.11 506.77 126.69 498.52 C 133.91 499.40 141.42 500.88 148.69 500.49 C 139.78 495.75 132.51 490.19 125.47 482.98 C 132.32 484.76 139.52 488.27 146.53 488.61 C 143.31 485.08 139.53 482.22 136.53 478.47 C 128.72 468.95 122.79 458.01 117.08 447.19 C 121.84 452.27 126.88 457.34 132.56 461.40 C 127.30 452.23 123.50 441.97 121.15 431.68 C 125.60 438.97 132.86 444.84 139.42 450.19 C 136.31 446.35 134.36 442.01 134.39 437.00 C 134.12 426.47 138.40 415.55 144.74 407.22 Z" id="p1" />
<path d="M 526.53 426.92 C 531.21 426.62 535.93 426.92 540.62 426.78 C 542.75 431.94 544.48 437.26 546.42 442.49 C 557.25 472.62 568.13 502.73 578.94 532.86 C 573.92 532.90 568.90 532.90 563.88 532.86 C 560.82 523.95 557.67 515.06 554.60 506.15 C 540.59 506.11 526.57 506.14 512.56 506.14 C 509.42 515.05 506.34 523.98 503.23 532.90 C 498.21 532.91 493.19 532.92 488.18 532.88 C 500.56 498.33 512.97 463.77 525.34 429.21 C 525.66 428.39 526.06 427.63 526.53 426.92 Z M 516.52 493.67 C 527.93 493.70 539.34 493.70 550.75 493.66 C 545.20 477.80 539.76 461.70 534.17 445.87 C 533.11 443.76 532.73 446.32 532.30 447.21 C 527.09 462.71 521.84 478.20 516.52 493.67 Z" id="p2" />
<path d="M 594.49 426.90 C 599.44 426.67 604.41 426.88 609.37 426.81 C 619.45 456.33 629.21 485.98 639.33 515.48 C 640.74 512.08 641.96 508.66 643.04 505.14 C 651.91 479.05 660.57 452.87 669.50 426.80 C 674.45 426.83 679.39 426.80 684.33 426.84 C 672.17 462.26 659.28 497.47 646.98 532.85 C 641.96 532.94 636.93 532.91 631.91 532.88 C 619.54 497.65 606.71 462.12 594.49 426.90 Z" id="p3" />
<path d="M 374.44 426.82 C 395.28 426.83 416.11 426.81 436.95 426.82 C 441.85 431.72 446.74 436.64 451.66 441.51 C 451.68 452.58 451.71 463.65 451.65 474.72 C 447.76 478.52 443.96 482.39 440.09 486.21 C 444.06 490.81 448.27 495.17 452.36 499.66 C 452.33 510.74 452.35 521.81 452.34 532.88 C 447.47 532.90 442.60 532.89 437.73 532.89 C 437.71 523.00 437.76 513.10 437.69 503.20 C 433.50 498.71 429.28 494.24 425.07 489.76 C 413.10 489.73 401.13 489.80 389.16 489.72 C 388.47 504.08 389.04 518.52 388.85 532.89 C 384.04 532.88 379.23 532.89 374.43 532.87 C 374.41 497.52 374.39 462.17 374.44 426.82 Z M 388.84 439.40 C 388.87 452.04 388.84 464.69 388.86 477.33 C 402.71 477.40 416.57 477.32 430.43 477.37 C 432.72 475.16 434.99 472.93 437.27 470.70 C 437.29 462.47 437.28 454.24 437.27 446.01 C 434.99 443.80 432.73 441.58 430.48 439.35 C 416.60 439.35 402.72 439.24 388.84 439.40 Z" id="p4" />
<path d="M 721.51 426.82 C 745.25 426.81 768.98 426.82 792.72 426.82 C 792.75 431.08 792.75 435.34 792.74 439.61 C 773.89 439.61 755.04 439.61 736.18 439.61 C 736.17 450.88 736.17 462.15 736.18 473.42 C 753.59 473.43 771.00 473.41 788.40 473.43 C 788.40 477.66 788.42 481.90 788.37 486.13 C 770.97 486.13 753.57 486.13 736.18 486.13 C 736.18 497.51 736.17 508.89 736.18 520.27 C 755.04 520.27 773.89 520.27 792.74 520.27 C 792.75 524.48 792.74 528.69 792.74 532.90 C 768.99 532.89 745.24 532.91 721.49 532.90 C 721.51 497.54 721.47 462.18 721.51 426.82 Z" id="p5" />
<path d="M 833.63 426.82 C 838.16 426.82 842.70 426.82 847.23 426.81 C 864.96 454.26 882.42 481.89 900.18 509.33 C 900.30 481.83 900.16 454.32 900.25 426.82 C 904.89 426.82 909.54 426.81 914.19 426.82 C 914.19 462.17 914.19 497.51 914.19 532.85 C 909.58 532.90 904.96 532.91 900.35 532.84 C 882.82 505.39 865.26 477.95 847.67 450.54 C 847.51 477.99 847.65 505.45 847.60 532.90 C 842.93 532.90 838.27 532.91 833.61 532.89 C 833.62 497.53 833.59 462.18 833.63 426.82 Z" id="p6" />
<path d="M 430.48 439.35 C 432.73 441.58 434.99 443.80 437.27 446.01 C 437.28 454.24 437.29 462.47 437.27 470.70 C 434.99 472.93 432.72 475.16 430.43 477.37 C 416.57 477.32 402.71 477.40 388.86 477.33 C 388.84 464.69 388.87 452.04 388.84 439.40 C 402.72 439.24 416.60 439.35 430.48 439.35 Z" id="p7" />
<path d="M 534.17 445.87 C 539.76 461.70 545.20 477.80 550.75 493.66 C 539.34 493.70 527.93 493.70 516.52 493.67 C 521.84 478.20 527.09 462.71 532.30 447.21 C 532.73 446.32 533.11 443.76 534.17 445.87 Z" id="p8" />
<path d="M 376.96 555.38 C 379.78 555.36 382.60 555.36 385.41 555.36 C 387.24 565.74 388.85 576.16 390.87 586.50 C 393.81 576.12 396.71 565.74 399.65 555.36 C 401.78 555.36 403.92 555.37 406.06 555.38 C 408.99 565.75 411.48 576.28 414.86 586.51 C 416.31 576.11 418.43 565.80 420.00 555.41 C 422.87 555.37 425.74 555.36 428.61 555.35 C 425.57 569.86 422.65 584.40 419.54 598.89 C 416.89 598.90 414.25 598.89 411.61 598.89 C 408.69 588.59 405.74 578.30 402.90 567.98 C 399.76 578.21 396.84 588.54 393.93 598.84 C 391.23 598.89 388.54 598.89 385.85 598.86 C 382.95 584.36 379.75 569.90 376.96 555.38 Z" id="p9" />
<path d="M 521.90 555.36 C 521.90 557.73 521.90 560.10 521.90 562.47 C 514.21 562.47 506.53 562.43 498.84 562.55 C 498.85 566.20 498.85 569.86 498.84 573.52 C 505.98 573.64 513.12 573.54 520.25 573.57 C 520.25 575.92 520.25 578.26 520.26 580.61 C 513.12 580.65 505.98 580.59 498.85 580.65 C 498.85 584.35 498.85 588.06 498.84 591.76 C 506.52 591.87 514.20 591.80 521.88 591.80 C 521.97 594.15 522.06 596.51 522.17 598.86 C 511.60 598.96 501.02 598.89 490.45 598.91 C 490.48 584.42 490.38 569.91 490.50 555.41 C 500.96 555.28 511.44 555.40 521.90 555.36 Z" id="p10" />
<path d="M 604.67 555.36 C 609.97 569.87 615.26 584.39 620.61 598.89 C 617.71 598.90 614.82 598.90 611.93 598.88 C 610.81 595.69 609.63 592.52 608.43 589.36 C 603.30 589.37 598.16 589.33 593.03 589.40 C 591.91 592.58 590.75 595.74 589.57 598.89 C 586.71 598.91 583.86 598.90 581.00 598.88 C 586.27 584.39 591.53 569.89 596.91 555.44 C 599.49 555.31 602.08 555.36 604.67 555.36 Z M 600.81 565.64 C 598.73 571.16 596.94 576.79 595.04 582.38 C 598.89 582.42 602.74 582.42 606.58 582.39 C 604.65 576.81 602.63 571.25 600.81 565.64 Z" id="p11" />
<path d="M 708.69 555.50 C 711.20 557.34 713.26 559.86 715.48 562.03 C 715.52 567.16 715.50 572.28 715.50 577.41 C 713.49 579.43 711.59 581.61 709.42 583.46 C 708.83 583.92 708.10 584.13 707.22 584.10 C 701.42 584.25 695.63 584.02 689.83 584.21 C 689.84 589.11 689.84 594.02 689.83 598.93 C 687.03 598.92 684.23 598.92 681.43 598.91 C 681.46 584.41 681.36 569.90 681.47 555.41 C 690.52 555.40 699.66 555.17 708.69 555.50 Z M 689.83 562.48 C 689.84 567.30 689.84 572.12 689.82 576.94 C 694.63 577.12 699.52 577.36 704.32 576.97 C 705.51 576.79 706.41 575.42 707.33 574.70 C 707.20 571.40 707.21 568.10 707.23 564.79 C 706.51 564.01 705.79 563.23 705.08 562.45 C 699.99 562.42 694.91 562.41 689.83 562.48 Z" id="p12" />
<path d="M 784.31 555.54 C 791.75 555.09 799.33 555.48 806.80 555.38 C 809.10 557.71 811.42 560.02 813.77 562.30 C 813.87 572.20 813.82 582.10 813.80 592.00 C 811.50 594.29 809.20 596.58 806.91 598.88 C 799.28 598.92 791.65 598.93 784.02 598.88 C 781.74 596.60 779.46 594.32 777.18 592.03 C 777.18 582.13 777.12 572.23 777.21 562.33 C 779.57 560.10 781.72 557.50 784.31 555.54 Z M 785.59 565.78 C 785.42 573.33 785.61 580.89 785.50 588.44 C 786.53 589.54 787.56 590.62 788.58 591.72 C 793.00 591.70 797.46 591.97 801.86 591.63 C 803.25 591.19 804.39 589.49 805.49 588.53 C 805.41 580.94 805.47 573.34 805.46 565.74 C 804.38 564.67 803.31 563.60 802.24 562.53 C 797.75 562.56 793.26 562.44 788.78 562.59 C 787.65 563.60 786.60 564.65 785.59 565.78 Z" id="p13" />
<path d="M 885.19 555.36 C 891.69 565.26 898.16 575.18 904.71 585.05 C 904.85 575.16 904.72 565.26 904.78 555.37 C 907.47 555.36 910.17 555.36 912.87 555.35 C 912.87 569.88 912.88 584.41 912.87 598.94 C 910.29 598.91 907.72 598.91 905.15 598.86 C 898.73 588.98 892.22 579.16 885.73 569.32 C 885.56 579.19 885.73 589.06 885.63 598.92 C 882.93 598.92 880.22 598.90 877.52 598.90 C 877.51 584.39 877.52 569.87 877.52 555.36 C 880.07 555.36 882.63 555.36 885.19 555.36 Z" id="p14" />
<path d="M 689.83 562.48 C 694.91 562.41 699.99 562.42 705.08 562.45 C 705.79 563.23 706.51 564.01 707.23 564.79 C 707.21 568.10 707.20 571.40 707.33 574.70 C 706.41 575.42 705.51 576.79 704.32 576.97 C 699.52 577.36 694.63 577.12 689.82 576.94 C 689.84 572.12 689.84 567.30 689.83 562.48 Z" id="p15" />
<path d="M 788.78 562.59 C 793.26 562.44 797.75 562.56 802.24 562.53 C 803.31 563.60 804.38 564.67 805.46 565.74 C 805.47 573.34 805.41 580.94 805.49 588.53 C 804.39 589.49 803.25 591.19 801.86 591.63 C 797.46 591.97 793.00 591.70 788.58 591.72 C 787.56 590.62 786.53 589.54 785.50 588.44 C 785.61 580.89 785.42 573.33 785.59 565.78 C 786.60 564.65 787.65 563.60 788.78 562.59 Z" id="p16" />
<path d="M 600.81 565.64 C 602.63 571.25 604.65 576.81 606.58 582.39 C 602.74 582.42 598.89 582.42 595.04 582.38 C 596.94 576.79 598.73 571.16 600.81 565.64 Z" id="p17" />
</defs>
<g stroke-width="10pt">
<use stroke="#ffffff" xlink:href="#p0" />
<use stroke="#000000" xlink:href="#p1" />
<use stroke="#000000" xlink:href="#p2" />
<use stroke="#000000" xlink:href="#p3" />
<use stroke="#000000" xlink:href="#p4" />
<use stroke="#000000" xlink:href="#p5" />
<use stroke="#000000" xlink:href="#p6" />
<use stroke="#ffffff" xlink:href="#p7" />
<use stroke="#ffffff" xlink:href="#p8" />
<use stroke="#000000" xlink:href="#p9" />
<use stroke="#000000" xlink:href="#p10" />
<use stroke="#000000" xlink:href="#p11" />
<use stroke="#000000" xlink:href="#p12" />
<use stroke="#000000" xlink:href="#p13" />
<use stroke="#000000" xlink:href="#p14" />
<use stroke="#ffffff" xlink:href="#p15" />
<use stroke="#ffffff" xlink:href="#p16" />
<use stroke="#ffffff" xlink:href="#p17" />
</g>
<g>
<use fill="#ffffff" xlink:href="#p0" />
<use fill="#000000" xlink:href="#p1" />
<use fill="#000000" xlink:href="#p2" />
<use fill="#000000" xlink:href="#p3" />
<use fill="#000000" xlink:href="#p4" />
<use fill="#000000" xlink:href="#p5" />
<use fill="#000000" xlink:href="#p6" />
<use fill="#ffffff" xlink:href="#p7" />
<use fill="#ffffff" xlink:href="#p8" />
<use fill="#000000" xlink:href="#p9" />
<use fill="#000000" xlink:href="#p10" />
<use fill="#000000" xlink:href="#p11" />
<use fill="#000000" xlink:href="#p12" />
<use fill="#000000" xlink:href="#p13" />
<use fill="#000000" xlink:href="#p14" />
<use fill="#ffffff" xlink:href="#p15" />
<use fill="#ffffff" xlink:href="#p16" />
<use fill="#ffffff" xlink:href="#p17" />
</g>
</svg>