<svg xmlns="http://www.w3.org/2000/svg" viewBox="0 0 750 471">
  <rect fill="#0E4595" width="750" height="471" rx="40" ry="40"/>
  <path d="M278.198 334.228l33.36-195.763h53.358l-33.384 195.763h-53.334zm246.11-191.137c-10.57-3.977-27.073-8.222-47.705-8.222-52.618 0-89.695 26.553-89.962 64.604-.269 28.138 26.478 43.825 46.697 53.19 20.769 9.599 27.752 15.729 27.652 24.306-.137 13.132-16.586 19.118-31.924 19.118-21.355 0-32.701-2.969-50.225-10.274l-6.878-3.112-7.487 43.823c12.463 5.46 35.509 10.199 59.438 10.445 55.931 0 92.283-26.204 92.686-66.903.2-22.269-14.016-39.215-44.801-53.192-18.65-9.056-30.073-15.099-29.951-24.269 0-8.137 9.668-16.838 30.556-16.838 17.449-.27 30.088 3.534 39.937 7.5l4.781 2.259 7.236-42.435" fill="#fff"/>
  <path d="M604.436 138.465h-41.191c-12.755 0-22.31 3.49-27.912 16.234l-79.245 179.529h55.998s9.157-24.117 11.231-29.421l68.327.089c1.598 6.854 6.495 29.332 6.495 29.332h49.467l-43.17-195.763zm-65.843 126.408c4.413-11.279 21.259-54.723 21.259-54.723-.314.544 4.38-11.334 7.074-18.684l3.606 16.879s10.217 46.728 12.353 56.528h-44.292z" fill="#fff"/>
  <path d="M209.119 138.465l-52.086 133.496-5.558-27.035c-9.676-31.096-39.815-64.773-73.518-81.665l47.716 170.733h56.403l83.869-195.529h-56.826" fill="#fff"/>
  <path d="M131.095 138.465H45.878l-.682 4.054c66.938 16.204 111.232 55.327 129.618 102.314l-18.71-89.96c-3.229-12.396-12.597-16.095-25.009-16.408" fill="#F2AE14"/>
</svg>